<?xml version="1.0" encoding="iso-8859-1"?>
<!-- Generator: Adobe Illustrator 19.0.0, SVG Export Plug-In . SVG Version: 6.00 Build 0)  -->
<svg version="1.1" id="Layer_1" xmlns="http://www.w3.org/2000/svg" xmlns:xlink="http://www.w3.org/1999/xlink" x="0px" y="0px"
	 viewBox="0 0 512 512" style="enable-background:new 0 0 512 512;" xml:space="preserve">
<path style="fill:#333333;" d="M374.672,512H91.744c-15.976-0.048-28.92-12.992-28.968-28.968V28.968
	C62.824,12.992,75.768,0.048,91.744,0h328.512c15.976,0.048,28.92,12.992,28.968,28.968v408.696"/>
<path style="fill:#E21B1B;" d="M374.656,452.528V512l74.568-74.336h-59.696C381.328,437.688,374.68,444.328,374.656,452.528z"/>
<g>
	<path style="fill:#FFFFFF;" d="M193.28,333.128l18.176,2.928c-2.472,7.336-7.104,13.752-13.296,18.4
		c-5.944,4.248-13.096,6.464-20.4,6.328c-7.784,0.4-15.384-2.456-20.976-7.888c-5.408-5.888-8.208-13.712-7.76-21.696
		c-0.032-7.368,1.568-14.648,4.696-21.312c3.024-6.568,7.952-12.08,14.144-15.808c6.232-3.824,13.408-5.824,20.72-5.768
		c7.08-0.36,14.048,1.92,19.544,6.4c4.872,4.272,7.832,10.328,8.208,16.8l-17.792,1.888c-0.128-3.176-1.384-6.2-3.544-8.536
		c-2.072-1.88-4.8-2.856-7.592-2.736c-3.744,0.04-7.344,1.464-10.104,4c-3.488,3.272-5.976,7.464-7.2,12.088
		c-1.592,4.872-2.432,9.96-2.504,15.088c-0.224,3.416,0.848,6.792,3,9.448c1.88,2.168,4.624,3.384,7.496,3.328
		c3.176-0.064,6.232-1.216,8.664-3.256C189.8,340.272,192.064,336.912,193.28,333.128z"/>
	<path style="fill:#FFFFFF;" d="M218.168,339.84l18.12-2.864c2.04,6.848,8.672,11.264,15.776,10.496
		c3.632,0.184,7.216-0.824,10.224-2.864c1.632-1.04,2.632-2.824,2.664-4.76c0-1.264-0.488-2.48-1.36-3.392
		c-2.352-1.632-4.984-2.816-7.76-3.512c-7.36-1.992-14.416-4.976-20.976-8.864c-4.112-3.168-6.456-8.104-6.32-13.288
		c-0.048-5.368,2.176-10.504,6.128-14.144c7.024-5.992,16.128-8.976,25.336-8.288c7.072-0.472,14.128,1.232,20.2,4.888
		c4.48,3.128,7.584,7.864,8.664,13.224l-17.264,3c-0.776-2.344-2.344-4.352-4.432-5.672c-3.04-1.76-6.52-2.64-10.032-2.536
		c-2.952-0.248-5.896,0.432-8.44,1.952c-1.544,0.992-2.504,2.672-2.568,4.504c0.032,1.792,1.024,3.432,2.6,4.296
		c3.384,1.536,6.896,2.752,10.496,3.648c6.528,1.488,12.728,4.136,18.312,7.824c4.088,3.088,6.496,7.912,6.512,13.032
		c-0.04,6.648-3.088,12.928-8.28,17.08c-6.632,5.176-14.936,7.736-23.328,7.2c-8.104,0.488-16.176-1.424-23.2-5.504
		C223.824,351.632,219.896,346.152,218.168,339.84z"/>
	<path style="fill:#FFFFFF;" d="M292.384,339.84l18.12-2.864c2.04,6.848,8.672,11.264,15.776,10.496
		c3.632,0.184,7.216-0.824,10.224-2.864c1.632-1.04,2.64-2.824,2.672-4.76c0-1.264-0.488-2.48-1.368-3.392
		c-2.352-1.632-4.984-2.816-7.76-3.512c-7.36-1.992-14.416-4.976-20.976-8.864c-4.112-3.168-6.456-8.104-6.32-13.288
		c-0.048-5.368,2.176-10.504,6.128-14.144c7.024-5.992,16.136-8.968,25.344-8.28c7.072-0.472,14.128,1.232,20.2,4.888
		c4.48,3.128,7.584,7.864,8.664,13.224l-17.264,3c-0.776-2.344-2.344-4.352-4.432-5.672c-3.048-1.76-6.52-2.64-10.04-2.536
		c-2.952-0.248-5.896,0.432-8.44,1.952c-1.544,0.992-2.504,2.672-2.568,4.504c0.032,1.792,1.024,3.432,2.6,4.296
		c3.384,1.536,6.896,2.752,10.496,3.648c6.528,1.48,12.728,4.136,18.312,7.824c4.088,3.088,6.496,7.912,6.512,13.032
		c-0.04,6.648-3.08,12.92-8.272,17.072c-6.632,5.176-14.936,7.736-23.328,7.2c-8.104,0.488-16.176-1.424-23.2-5.504
		C298.04,351.632,294.112,346.152,292.384,339.84z"/>
</g>
<g>
	<path style="fill:#E21B1B;" d="M164.8,166.4l3.712-17.136c2.824-0.056,5.608-0.6,8.248-1.6c2.2-1.024,4.128-2.568,5.6-4.496
		c1.776-2.224,3.176-4.72,4.144-7.392c1.472-4.368,2.64-8.824,3.504-13.352c1.088-6.384,2.936-12.616,5.504-18.56
		c1.568-3.304,3.848-6.216,6.672-8.528c3.208-2.304,6.832-3.968,10.672-4.888c4.528-0.952,9.16-1.36,13.784-1.208h3.76
		l-3.648,17.064c-3.624-0.208-7.264,0.144-10.784,1.032c-1.632,0.592-3.016,1.72-3.92,3.2c-1.44,3.376-2.512,6.896-3.2,10.504
		c-2.664,10.56-4.456,16.984-5.36,19.272c-1.432,3.688-3.488,7.104-6.072,10.104c-2.856,3-6.184,5.52-9.848,7.464
		c2.632,1.664,4.768,3.992,6.208,6.752c1.464,3.264,2.152,6.824,2,10.4c-0.088,2.568-0.376,5.12-0.856,7.64
		c-1.568,9.28-2.552,14.776-2.96,16.496c-0.36,1.4-0.56,2.832-0.6,4.28c-0.032,1.176,0.328,2.336,1.032,3.28
		c0.776,0.968,1.84,1.664,3.032,2c2.936,0.576,5.936,0.792,8.928,0.648l-3.76,17.024H196.8c-4.952,0.2-9.912-0.344-14.704-1.6
		c-3.016-0.904-5.648-2.776-7.496-5.32c-1.872-2.84-2.792-6.2-2.64-9.6c0.328-5.456,1.168-10.872,2.504-16.168
		c1.264-4.984,2.104-10.072,2.504-15.2c0.288-3.24-0.672-6.472-2.68-9.032C171.616,167.312,168.232,166.208,164.8,166.4z"/>
	<path style="fill:#E21B1B;" d="M346.24,166.4c-3.504-0.008-6.96,0.88-10.032,2.568c-2.736,1.848-4.92,4.4-6.32,7.392
		c-2.44,5.6-4.184,11.472-5.208,17.496c-1.064,6.152-2.856,12.16-5.352,17.88c-1.568,3.304-3.856,6.216-6.68,8.528
		c-3.184,2.304-6.784,3.96-10.6,4.888c-4.544,1.016-9.2,1.448-13.848,1.288h-3.784l3.712-17.136
		c3.536,0.192,7.072-0.168,10.496-1.08c1.728-0.608,3.208-1.76,4.216-3.28c1.424-3.304,2.496-6.752,3.2-10.28
		c2.616-10.472,4.336-16.752,5.144-18.848c1.504-3.864,3.648-7.456,6.352-10.6c2.744-3.056,6.04-5.56,9.712-7.392
		c-2.704-1.832-4.928-4.28-6.496-7.144c-1.336-3.152-1.952-6.568-1.792-9.992c0.088-2.544,0.376-5.072,0.856-7.568
		c1.528-9.144,2.496-14.648,2.92-16.52c0.384-1.552,0.608-3.152,0.648-4.752c0.056-1.12-0.264-2.224-0.896-3.144
		c-0.744-0.912-1.776-1.552-2.92-1.824c-3.024-0.544-6.104-0.744-9.176-0.608l3.72-17.064h3.784c4.96-0.2,9.912,0.344,14.712,1.6
		c3.008,0.904,5.632,2.76,7.496,5.288c1.864,2.792,2.792,6.112,2.64,9.464c-0.32,5.48-1.16,10.92-2.496,16.24
		c-1.264,4.984-2.104,10.072-2.496,15.2c-0.288,3.248,0.672,6.488,2.672,9.064c2.664,2.224,6.064,3.368,9.528,3.2L346.24,166.4z"/>
</g>
<g>
</g>
<g>
</g>
<g>
</g>
<g>
</g>
<g>
</g>
<g>
</g>
<g>
</g>
<g>
</g>
<g>
</g>
<g>
</g>
<g>
</g>
<g>
</g>
<g>
</g>
<g>
</g>
<g>
</g>
</svg>
