<?xml version="1.0" encoding="iso-8859-1"?>
<!-- Generator: Adobe Illustrator 19.0.0, SVG Export Plug-In . SVG Version: 6.00 Build 0)  -->
<svg version="1.1" id="Capa_1" xmlns="http://www.w3.org/2000/svg" xmlns:xlink="http://www.w3.org/1999/xlink" x="0px" y="0px"
	 viewBox="0 0 512.143 512.143" style="enable-background:new 0 0 512.143 512.143;" xml:space="preserve">
<g>
	<path style="fill:#607D8B;" d="M160,21.405h-42.667c-5.891,0-10.667,4.776-10.667,10.667s4.776,10.667,10.667,10.667H160
		c5.891,0,10.667-4.776,10.667-10.667S165.891,21.405,160,21.405z"/>
	<path style="fill:#607D8B;" d="M288,21.405h-42.667c-5.891,0-10.667,4.776-10.667,10.667s4.776,10.667,10.667,10.667H288
		c5.891,0,10.667-4.776,10.667-10.667S293.891,21.405,288,21.405z"/>
	<path style="fill:#607D8B;" d="M160,352.071h-42.667c-5.891,0-10.667,4.776-10.667,10.667s4.776,10.667,10.667,10.667H160
		c5.891,0,10.667-4.776,10.667-10.667S165.891,352.071,160,352.071z"/>
	<path style="fill:#607D8B;" d="M288,352.071h-42.667c-5.891,0-10.667,4.776-10.667,10.667s4.776,10.667,10.667,10.667H288
		c5.891,0,10.667-4.776,10.667-10.667S293.891,352.071,288,352.071z"/>
	<path style="fill:#607D8B;" d="M21.333,288.071c0,5.891,4.776,10.667,10.667,10.667s10.667-4.776,10.667-10.667v-42.667
		c0-5.891-4.776-10.667-10.667-10.667s-10.667,4.776-10.667,10.667V288.071z"/>
	<path style="fill:#607D8B;" d="M32,170.738c5.891,0,10.667-4.776,10.667-10.667v-42.667c0-5.891-4.776-10.667-10.667-10.667
		s-10.667,4.776-10.667,10.667v42.667C21.333,165.962,26.109,170.738,32,170.738z"/>
	<path style="fill:#607D8B;" d="M373.333,234.738c-5.891,0-10.667,4.776-10.667,10.667v42.667c0,5.891,4.776,10.667,10.667,10.667
		S384,293.962,384,288.071v-42.667C384,239.514,379.224,234.738,373.333,234.738z"/>
	<path style="fill:#607D8B;" d="M384,117.405c0-5.891-4.776-10.667-10.667-10.667s-10.667,4.776-10.667,10.667v42.667
		c0,5.891,4.776,10.667,10.667,10.667S384,165.962,384,160.071V117.405z"/>
</g>
<g>
	<path style="fill:#455A64;" d="M352,0.071h42.667c5.891,0,10.667,4.776,10.667,10.667v42.667c0,5.891-4.776,10.667-10.667,10.667
		H352c-5.891,0-10.667-4.776-10.667-10.667V10.738C341.333,4.847,346.109,0.071,352,0.071z"/>
	<path style="fill:#455A64;" d="M10.667,0.071h42.667C59.224,0.071,64,4.847,64,10.738v42.667c0,5.891-4.776,10.667-10.667,10.667
		H10.667C4.776,64.071,0,59.296,0,53.405V10.738C0,4.847,4.776,0.071,10.667,0.071z"/>
	<path style="fill:#455A64;" d="M10.667,330.738h42.667c5.891,0,10.667,4.776,10.667,10.667v42.667
		c0,5.891-4.776,10.667-10.667,10.667H10.667C4.776,394.738,0,389.962,0,384.071v-42.667C0,335.514,4.776,330.738,10.667,330.738z"
		/>
</g>
<path style="fill:#2196F3;" d="M506.517,385.415l-192-106.667c-5.149-2.861-11.643-1.007-14.505,4.143
	c-1.56,2.807-1.772,6.167-0.578,9.148l85.333,213.333c1.604,4.002,5.459,6.646,9.771,6.699h0.128c4.247,0.006,8.093-2.507,9.792-6.4
	l30.315-70.741l70.827-30.379c5.432-2.279,7.988-8.531,5.709-13.963c-0.936-2.231-2.603-4.078-4.728-5.237L506.517,385.415z"/>
<g>
</g>
<g>
</g>
<g>
</g>
<g>
</g>
<g>
</g>
<g>
</g>
<g>
</g>
<g>
</g>
<g>
</g>
<g>
</g>
<g>
</g>
<g>
</g>
<g>
</g>
<g>
</g>
<g>
</g>
</svg>
