<?xml version="1.0" encoding="UTF-8" standalone="no"?>
<!-- Created with Inkscape (http://www.inkscape.org/) -->

<svg
   xmlns:dc="http://purl.org/dc/elements/1.1/"
   xmlns:cc="http://creativecommons.org/ns#"
   xmlns:rdf="http://www.w3.org/1999/02/22-rdf-syntax-ns#"
   xmlns:svg="http://www.w3.org/2000/svg"
   xmlns="http://www.w3.org/2000/svg"
   xmlns:sodipodi="http://sodipodi.sourceforge.net/DTD/sodipodi-0.dtd"
   xmlns:inkscape="http://www.inkscape.org/namespaces/inkscape"
   version="1.1"
   id="svg2"
   width="1200"
   height="1200"
   viewBox="0 0 1200 1200"
   sodipodi:docname="logo-css.svg"
   inkscape:version="0.92.4 (5da689c313, 2019-01-14)">
  <metadata
     id="metadata8">
    <rdf:RDF>
      <cc:Work
         rdf:about="">
        <dc:format>image/svg+xml</dc:format>
        <dc:type
           rdf:resource="http://purl.org/dc/dcmitype/StillImage" />
        <dc:title></dc:title>
      </cc:Work>
    </rdf:RDF>
  </metadata>
  <defs
     id="defs6" />
  <sodipodi:namedview
     pagecolor="#ffffff"
     bordercolor="#666666"
     borderopacity="1"
     objecttolerance="10"
     gridtolerance="10"
     guidetolerance="10"
     inkscape:pageopacity="0"
     inkscape:pageshadow="2"
     inkscape:window-width="1920"
     inkscape:window-height="1120"
     id="namedview4"
     showgrid="false"
     inkscape:zoom="0.35355339"
     inkscape:cx="-1040.1013"
     inkscape:cy="815.14907"
     inkscape:window-x="0"
     inkscape:window-y="0"
     inkscape:window-maximized="1"
     inkscape:current-layer="svg2" />
  <g
     id="g285"
     transform="translate(10.675111,27.364861)">
    <path
       style="fill:#ececec;stroke-width:1.33333337"
       d="m 406,1089.9288 c -106.33333,-30.4094 -196.41832,-56.1814 -200.18885,-57.2712 -3.77055,-1.0898 -7.21647,-2.922 -7.65763,-4.0717 -0.73348,-1.9114 -2.653,-22.2038 -10.14536,-107.25257 -1.45357,-16.5 -4.13751,-46.8 -5.96431,-67.33333 -1.82681,-20.53333 -5.13654,-58.03333 -7.35497,-83.33333 -2.21843,-25.3 -5.23803,-59.5 -6.71024,-76 -2.40767,-26.98439 -6.82193,-77.10188 -14.621,-166 -1.47972,-16.86667 -3.00971,-33.96667 -3.39997,-38 -0.39028,-4.03334 -3.99155,-44.83334 -8.00283,-90.66667 -4.01127,-45.83333 -7.88052,-89.93333 -8.59832,-98 -4.4805,-50.35191 -12.10301,-136.71093 -19.33721,-219.080411 -1.42802,-16.259604 -1.61802,-23.84471 -0.64294,-25.666666 1.36588,-2.552178 7.77649,-2.586256 486.50728,-2.586256 425.84395,0 485.32255,0.24021 486.75465,1.965809 1.0961,1.320724 1.3718,4.492868 0.8403,9.666667 -0.4351,4.235472 -2.0029,21.500857 -3.4839,38.367527 -7.7616,88.3917 -16.312,185.63378 -19.2858,219.33333 -1.8444,20.9 -5.1777,58.7 -7.4075,84 -2.2297,25.3 -4.9309,55.9 -6.0026,68 -1.0717,12.1 -3.1639,35.8 -4.6493,52.66667 -2.5659,29.13721 -8.8679,100.57806 -14.6433,166 -1.4566,16.5 -5.9551,67.5 -9.9968,113.33333 -7.8581,89.11296 -12.3454,139.80925 -16.6619,188.24319 -1.4824,16.63371 -3.0451,31.15471 -3.4727,32.26881 -0.4275,1.1141 -2.67421,2.6275 -4.99271,3.3631 -5.78816,1.8364 -396.83912,113.4724 -397.23298,113.4008 -0.17367,-0.032 -87.31578,-24.9377 -193.64911,-55.3471 z M 677.8844,888.72577 C 719.01465,875.19163 768.56667,858.84163 788,852.39244 L 823.33333,840.66667 826.28224,792 c 1.62189,-26.76667 4.49251,-74.46667 6.37913,-106 1.88663,-31.53333 4.2992,-71.43333 5.36128,-88.66667 9.48575,-153.91645 11.80662,-191.17861 15.2782,-245.29548 2.18616,-34.07918 3.50476,-62.43224 2.93023,-63.00677 -0.57455,-0.57455 -58.31157,-0.89157 -128.30452,-0.70452 l -127.25989,0.34011 -0.3483,54.33333 -0.34828,54.33333 h 69.8517 c 56.80617,0 70.12901,0.33415 71.3366,1.7892 1.09794,1.32295 0.64222,12.70231 -1.74876,43.66667 -1.77851,23.03261 -3.65794,48.36929 -4.1765,56.30375 -0.63188,9.6684 -1.5718,15.05524 -2.84989,16.33333 -1.60188,1.60188 -12.34665,1.90705 -67.14515,1.90705 H 600 v 54 54 l 3,0.0151 c 109.428,0.54803 122.32384,0.7748 123.7244,2.17569 1.13816,1.13843 1.15321,7.04239 0.0595,23.33334 -0.80532,11.9951 -2.70399,40.70928 -4.21926,63.80928 -1.93052,29.43022 -3.27322,42.53241 -4.48645,43.779 -0.95228,0.97844 -25.35944,9.83413 -54.23813,19.6793 -28.8787,9.84518 -55.05672,18.84424 -58.17339,19.99795 L 600,800.22063 v 56.55639 c 3e-5,42.10817 0.39627,56.55634 1.5511,56.55634 0.85309,0 35.20309,-11.0734 76.33333,-24.60756 z"
       id="path299"
       inkscape:connector-curvature="0" />
    <path
       style="fill:#a7d1e9;stroke-width:1.33333337"
       d="M 400,1087.1877 C 291.1,1055.996 201.24245,1029.7395 200.31656,1028.84 c -1.62977,-1.5833 -2.59143,-10.1348 -7.59139,-67.50667 C 191.60676,948.5 188.89132,917.6 186.69088,892.66667 c -2.20044,-24.93334 -6.0878,-69.03334 -8.63856,-98 -2.55076,-28.96667 -5.57493,-63.16667 -6.72039,-76 C 169.23151,695.13389 160.28597,593.43948 154.03219,522 c -1.86168,-21.26667 -4.56715,-51.86667 -6.01215,-68 -3.94204,-44.01267 -10.40833,-116.97944 -12.70217,-143.33333 -1.117,-12.83334 -4.09994,-46.73334 -6.62875,-75.33334 C 113.367,62.045247 113.18932,59.780099 114.76915,57.876515 c 2.35169,-2.833611 968.11715,-2.825028 970.46885,0.0087 1.5639,1.884391 1.1321,7.693756 -9.2753,124.781525 -1.4666,16.5 -4.1409,46.8 -5.9429,67.33333 -1.802,20.53333 -6.8815,78.13333 -11.2878,128 -4.4063,49.86667 -8.6179,97.56667 -9.3589,106 -0.7411,8.43333 -2.5654,29.13333 -4.0541,46 -5.3944,61.1186 -16.0583,182.02069 -18.6402,211.33333 -1.4534,16.5 -5.0565,57.3 -8.0071,90.66667 -2.9505,33.36667 -6.556,74.16667 -8.0123,90.66667 -8.5055,96.37096 -9.3561,104.59906 -10.97439,106.15996 -1.52694,1.4728 -390.50632,113.3315 -398.35168,114.5539 C 599.5,1143.6662 508.9,1118.3794 400,1087.1877 Z M 712.5484,878.69681 c 60.06829,-19.75982 109.83472,-36.5466 110.59208,-37.30396 0.80065,-0.80065 3.46815,-35.84205 6.373,-83.71826 C 838.51405,609.33177 842.7132,541.09032 850.66099,414 c 4.37546,-69.96656 7.33168,-125.84717 6.69196,-126.49651 -0.6511,-0.66088 -112.60286,-0.7323 -259.24946,-0.1654 L 340,288.33587 l -0.0395,4.1654 c -0.10546,11.1365 7.29627,103.0454 8.41563,104.49873 1.01657,1.31988 41.86267,1.66667 196.31109,1.66667 170.93272,0 195.12095,0.24373 195.78446,1.9728 1.14224,2.97664 -7.28886,111.77406 -8.81055,113.69386 C 730.62055,515.64621 702.77933,516 600.50339,516 H 470.66667 l 0.0232,3 c 0.0133,1.65 1.2023,25.5 2.64349,53 1.44119,27.5 2.63076,51.05 2.64349,52.33333 0.0219,2.2052 6.78178,2.33334 123.10167,2.33334 99.97411,0 123.53131,0.3311 125.49067,1.76382 2.32088,1.69707 2.25293,4.15667 -1.79522,64.98339 -2.31406,34.77076 -4.70825,63.72043 -5.3204,64.33257 -0.61214,0.61215 -27.4321,10.10332 -59.59989,21.09148 l -58.48689,19.97847 -57.35004,-19.50661 c -31.54254,-10.72864 -58.14422,-20.27792 -59.11487,-21.22063 -1.71343,-1.66412 -4.07285,-35.69203 -4.18956,-60.42249 L 478.66667,688 H 423.33333 368 v 3.56575 c 0,9.95668 8.18237,149.06278 8.80529,149.69606 1.40619,1.42962 219.90408,73.13687 223.19471,73.24868 1.83333,0.0623 52.48012,-16.05386 112.5484,-35.81368 z"
       id="path297"
       inkscape:connector-curvature="0" />
    <path
       style="fill:#5ba9d6;stroke-width:1.33333337"
       d="m 399.74037,1085.5521 c -109.04278,-31.287 -198.60322,-57.2459 -199.02318,-57.6864 -0.73798,-0.7741 -2.32527,-16.6788 -6.70652,-67.19903 C 190.89149,924.69943 177.89715,777.15421 172.63895,718 166.62621,650.35729 159.58092,570.47221 155.35316,522 c -1.85488,-21.26667 -4.55479,-51.86667 -5.99979,-68 -3.94204,-44.01267 -10.40833,-116.97944 -12.70217,-143.33333 -1.117,-12.83334 -4.09994,-46.73334 -6.62875,-75.33334 C 116.50809,82.490437 114.62607,59.811045 115.35857,58.625836 c 1.11466,-1.803568 968.18803,-1.771505 969.30273,0.03213 0.4503,0.728552 -0.7137,18.578552 -2.5867,39.666667 -1.8729,21.088117 -4.3176,48.842027 -5.4327,61.675367 -1.1151,12.83333 -2.6114,29.63333 -3.3252,37.33333 -0.7137,7.7 -2.7856,31.1 -4.6041,52 -1.8184,20.9 -5.4048,61.7 -7.9695,90.66667 -5.1719,58.41128 -10.6543,120.53137 -12.7086,144 -0.7382,8.43333 -2.5367,28.83333 -3.9966,45.33333 -1.4599,16.5 -7.4751,84.6 -13.3671,151.33333 -5.892,66.73334 -11.3025,127.93334 -12.0233,136 -2.2223,24.87199 -10.471,118.67735 -12.6625,144 -4.5578,52.66494 -5.99072,66.53554 -6.96629,67.43254 -1.13482,1.0434 -397.9562,114.6342 -399.83282,114.4529 -0.65224,-0.063 -90.40272,-25.7131 -199.44552,-57 z M 713.76489,879.90413 c 60.26264,-19.85273 110.1803,-36.87848 110.92811,-37.83498 0.76768,-0.98194 4.72932,-57.39502 9.09919,-129.5708 4.25673,-70.30743 11.89881,-194.63263 16.98238,-276.27824 5.08356,-81.64562 8.90352,-148.99562 8.48879,-149.66667 -0.45187,-0.73113 -104.28589,-1.22011 -259.08721,-1.22011 -204.63655,0 -258.77786,0.34643 -260.47264,1.66667 -1.95715,1.52461 -1.79244,6.26932 1.93238,55.66667 2.23955,29.7 4.66111,54.75 5.38127,55.66666 C 348.054,399.65311 388.93201,400 543.41791,400 c 107.30025,0 195.36513,0.45 195.6997,1 1.08012,1.77553 -7.44584,110.27571 -8.80096,112 -1.03177,1.31285 -28.73969,1.66667 -130.52176,1.66667 -114.21206,0 -129.30193,0.23457 -129.98732,2.02065 -0.9106,2.37299 4.27114,107.94932 5.3868,109.75449 0.4452,0.72035 52.19944,1.63668 125.4484,2.22111 68.57982,0.54717 124.6936,1.37187 124.69734,1.83264 0.0769,9.52791 -8.56063,125.2036 -9.4145,126.08009 -0.66564,0.68328 -27.11484,10.09378 -58.77598,20.91219 l -57.56574,19.66987 -33.45861,-11.37364 c -18.40224,-6.2555 -43.95861,-14.92676 -56.79195,-19.26948 -12.83333,-4.34271 -24.07756,-8.3669 -24.98716,-8.94263 -1.17977,-0.74675 -2.06916,-10.77209 -3.10284,-34.97604 -1.21692,-28.49479 -1.7937,-34.1962 -3.60101,-35.59592 -2.60211,-2.01527 -106.41716,-2.40097 -109.56864,-0.40708 -1.67173,1.05767 -1.44615,10.3504 1.70697,70.31291 4.42502,84.15018 4.53638,85.45592 7.37019,86.41733 60.47049,20.51541 220.58277,72.59851 223.28072,72.6312 2.07069,0.0251 53.07069,-16.19751 113.33333,-36.05023 z"
       id="path295"
       inkscape:connector-curvature="0" />
    <path
       style="fill:#0299e4;stroke-width:1.33333337"
       d="m 401.33333,1084.5245 c -108.9,-31.1699 -198.47292,-57.1421 -199.05093,-57.7161 -0.57803,-0.574 -2.81445,-21.0907 -4.96985,-45.59267 -2.1554,-24.50198 -6.6443,-75.44906 -9.97531,-113.21573 -3.33103,-37.76667 -6.94807,-78.86667 -8.03788,-91.33333 C 178.20953,764.2 175.52271,733.9 173.32861,709.33333 c -2.19409,-24.56666 -9.37813,-105.86666 -15.96453,-180.66666 -6.58641,-74.8 -14.10231,-160 -16.702,-189.33334 C 138.06239,310 134.4636,269.2 132.66478,248.66667 123.36501,142.51121 118.49387,87.295788 117.32987,74.842152 c -0.71068,-7.603483 -0.96522,-14.353483 -0.56565,-15 0.95603,-1.546881 965.50848,-1.558279 966.46448,-0.01147 0.3957,0.640236 -0.1482,10.690236 -1.2086,22.333334 -1.0605,11.643144 -2.8653,31.969314 -4.0107,45.169314 -1.1454,13.2 -3.2503,37.2 -4.6776,53.33334 -1.4272,16.13333 -4.1345,46.73333 -6.0161,68 -1.8816,21.26666 -5.4802,62.06666 -7.997,90.66666 -2.5167,28.6 -11.7816,133.6 -20.5886,233.33334 -8.807,99.73333 -16.9124,191.53333 -18.0119,204 -1.0995,12.46666 -4.7244,53.56666 -8.0554,91.33333 -3.3311,37.76667 -7.8199,88.71375 -9.9753,113.21573 -2.1554,24.50197 -4.39263,45.02277 -4.97158,45.60167 -0.80131,0.8013 -397.30967,114.7649 -398.19273,114.4477 -0.10442,-0.038 -89.28986,-25.5708 -198.18986,-56.7406 z M 683.93529,891.228 c 45.86892,-15.09127 96.52687,-31.74127 112.57322,-37 22.61393,-7.41107 29.41454,-10.16104 30.23958,-12.228 0.58543,-1.46667 4.41483,-58.76667 8.50979,-127.33333 4.09495,-68.56667 11.69696,-192.99428 16.89336,-276.5058 7.84785,-126.12294 9.14321,-152.0323 7.64839,-152.97959 -0.9898,-0.62724 -118.57616,-1.14964 -261.30304,-1.16087 -220.06156,-0.0173 -259.73743,0.26156 -261.04311,1.83483 -1.87115,2.25459 5.93588,111.11911 8.16177,113.81143 1.09088,1.31946 42.02,1.66666 196.46932,1.66666 107.30026,0 195.33159,0.45 195.62516,1 0.29359,0.55 -1.321,25.25784 -3.58797,54.90631 L 730,511.14593 l -4,1.10683 c -2.2,0.60875 -30.1,1.07727 -62,1.04116 -31.9,-0.0361 -89.05,-0.042 -127,-0.0133 l -69,0.0527 L 468.0804,525 c 0.13227,19.19657 4.60241,100.88155 5.60941,102.50427 0.67504,1.0878 35.492,1.78 125.75928,2.50021 l 124.82582,0.99595 -0.799,8.16645 c -0.43944,4.49155 -2.35002,32.16645 -4.24572,61.49979 -2.24003,34.66114 -3.99234,53.86716 -5.00514,54.8581 -1.96454,1.92218 -110.97601,39.1419 -114.64122,39.1419 -2.75111,0 -112.85288,-37.06318 -114.46346,-38.53143 -0.4838,-0.44105 -1.53852,-16.04612 -2.34382,-34.67795 -0.89907,-20.8007 -2.03782,-34.56717 -2.95031,-35.66666 -2.10353,-2.5346 -112.15195,-2.65411 -114.14771,-0.124 -1.40012,1.77502 6.46314,156.25277 8.03355,157.82318 0.6738,0.67382 224.10043,74.84996 226.22321,75.1046 0.33108,0.0397 38.13108,-12.27518 84,-27.36645 z"
       id="path293"
       inkscape:connector-curvature="0" />
    <path
       style="fill:#0688cf;stroke-width:1.33333337"
       d="m 401.33333,1084.5245 c -108.9,-31.1699 -198.47292,-57.1421 -199.05093,-57.7161 -0.57803,-0.574 -2.81445,-21.0907 -4.96985,-45.59267 -2.1554,-24.50198 -6.6443,-75.44906 -9.97531,-113.21573 -3.33103,-37.76667 -6.94807,-78.86667 -8.03788,-91.33333 C 178.20953,764.2 175.52271,733.9 173.32861,709.33333 c -2.19409,-24.56666 -9.37813,-105.86666 -15.96453,-180.66666 -6.58641,-74.8 -14.10231,-160 -16.702,-189.33334 C 138.06239,310 134.4636,269.2 132.66478,248.66667 123.36501,142.51121 118.49387,87.295788 117.32987,74.842152 c -0.71068,-7.603483 -0.96522,-14.353483 -0.56565,-15 0.95603,-1.546881 965.50848,-1.558279 966.46448,-0.01147 0.3957,0.640236 -0.1482,10.690236 -1.2086,22.333334 -1.0605,11.643144 -2.8653,31.969314 -4.0107,45.169314 -1.1454,13.2 -3.2503,37.2 -4.6776,53.33334 -1.4272,16.13333 -4.1345,46.73333 -6.0161,68 -1.8816,21.26666 -5.4802,62.06666 -7.997,90.66666 -2.5167,28.6 -11.7816,133.6 -20.5886,233.33334 -8.807,99.73333 -16.9124,191.53333 -18.0119,204 -1.0995,12.46666 -4.7244,53.56666 -8.0554,91.33333 -3.3311,37.76667 -7.8199,88.71375 -9.9753,113.21573 -2.1554,24.50197 -4.39263,45.02277 -4.97158,45.60167 -0.80131,0.8013 -397.30967,114.7649 -398.19273,114.4477 -0.10442,-0.038 -89.28986,-25.5708 -198.18986,-56.7406 z m 244.1769,-44.4079 c 40.76468,-11.5827 138.42501,-39.4721 227.15644,-64.8702 24.2,-6.92692 44.61318,-13.41868 45.36264,-14.42612 0.74945,-1.00745 2.42501,-14.65415 3.72345,-30.326 1.29845,-15.67185 5.61551,-65.69428 9.59345,-111.16095 3.97795,-45.46666 10.26498,-117.76666 13.97116,-160.66666 3.7062,-42.9 8.80884,-101.4 11.33922,-130 2.53037,-28.6 8.82533,-100.6 13.9888,-160 5.16346,-59.4 11.47918,-131.7 14.03493,-160.66667 2.55576,-28.96667 4.64821,-55.21667 4.64992,-58.33333 L 989.33333,144 h -194 -194 v 70 70 H 470.16325 c -110.42005,0 -131.41364,0.29348 -132.70977,1.85524 -1.86819,2.25103 5.93407,111.11689 8.15621,113.80472 1.07372,1.29873 28.97488,1.73396 128.21467,2 L 600.66667,402 v 55.33333 55.33334 l -66.33334,0.34578 -66.33333,0.34578 0.0804,11.65422 c 0.13937,20.20007 4.62865,100.91136 5.70977,102.65422 0.80274,1.29408 14.70326,1.66666 62.17946,1.66666 33.63008,0 62.09466,0.36419 63.25464,0.80932 1.89149,0.72583 2.10905,9.25346 2.10905,82.66667 1e-5,75.59076 -0.17052,81.85735 -2.22761,81.85735 -2.4311,0 -112.55263,-37.22532 -113.98534,-38.53143 -0.4838,-0.44105 -1.53852,-16.04612 -2.34382,-34.67795 -0.89907,-20.8007 -2.03782,-34.56717 -2.95031,-35.66666 -2.10353,-2.5346 -112.15195,-2.65411 -114.14771,-0.124 -0.8727,1.10638 0.15751,27.88774 3.06458,79.66666 2.40856,42.9 4.42669,78.12267 4.48472,78.2726 0.0841,0.21742 163.09013,54.04527 215.77217,71.25232 l 12.33333,4.02832 v 66.55671 c 0,37.58406 0.51231,66.55676 1.1769,66.55676 0.64729,0 19.99729,-5.3475 43,-11.8834 z"
       id="path291"
       inkscape:connector-curvature="0" />
    <path
       style="fill:#047bc1;stroke-width:1.33333337"
       d="m 400.01641,1083.5246 c -186.2556,-53.3056 -196.70166,-56.4543 -197.62312,-59.5692 -0.53508,-1.8088 -2.22272,-18.2887 -3.7503,-36.62207 C 197.11539,969 195.3032,948 194.61589,940.66667 193.9286,933.33333 192.46029,916.83333 191.353,904 c -1.10729,-12.83333 -4.11133,-47.03333 -6.67564,-76 -4.25073,-48.01684 -9.70029,-109.79307 -16.70193,-189.33333 -5.98287,-67.96688 -9.47866,-107.5811 -11.9426,-135.33334 -1.43239,-16.13333 -3.81374,-43.13333 -5.29191,-60 -1.47817,-16.86666 -4.20631,-47.76666 -6.06252,-68.66666 -1.8562,-20.9 -4.57899,-51.8 -6.05061,-68.66667 -1.47163,-16.86667 -3.25964,-36.96667 -3.97336,-44.66667 -0.71372,-7.7 -2.49744,-27.8 -3.96382,-44.66666 C 129.22423,199.8 125.61896,158.85367 122.6789,125.67481 119.73884,92.495957 117.33333,64.145957 117.33333,62.674811 117.33333,60.002211 117.73235,60 600,60 c 467.0415,0 482.6667,0.07908 482.6667,2.442913 0,1.343603 -3.0074,36.293603 -6.6831,77.666677 -3.6757,41.37305 -7.5888,86.02374 -8.6958,99.22374 -1.107,13.2 -3.1798,36.9 -4.6062,52.66667 -2.9249,32.33097 -6.6373,74.06897 -10.614,119.33333 -3.6014,40.99344 -10.0468,114.10298 -14.1057,160 -1.8158,20.53334 -6.5877,74.83334 -10.6041,120.66667 -4.0164,45.83333 -8.2212,93.53333 -9.3439,106 -1.1226,12.46667 -3.8427,43.06667 -6.0446,68 -2.2019,24.93333 -4.8579,54.93333 -5.9023,66.66667 -1.0443,11.73333 -3.1953,36.93333 -4.7799,56 -1.58467,19.06663 -3.33433,35.56093 -3.88814,36.65403 -1.02931,2.0314 -392.70232,114.771 -398.06563,114.5796 -1.46666,-0.052 -91.15928,-25.4214 -199.31692,-56.3757 z m 362.58752,-74.8567 c 86.13216,-24.59573 157.07298,-45.45793 157.64626,-46.36039 0.57326,-0.90246 1.0515,-2.59898 1.06273,-3.77004 0.0107,-1.17106 1.53396,-19.47106 3.38385,-40.66667 1.84988,-21.1956 7.2303,-82.93747 11.95646,-137.20413 C 941.37939,726.4 946.77069,664.6 948.63389,643.33333 c 1.8632,-21.26666 7.2971,-83.66666 12.07532,-138.66666 4.77824,-55 12.88047,-148 18.00498,-206.66667 C 991.93892,146.59961 992.05527,145.16812 991.24317,143.85411 990.6208,142.84709 600.61045,141.99633 599.69644,143 c -0.16695,0.18333 -0.61695,31.83333 -1,70.33333 L 598,283.33333 467.33333,284 l -130.66666,0.66667 -0.36736,6 c -0.65354,10.6741 7.2951,108.12772 8.95464,109.78756 1.14505,1.14525 34.17544,1.63732 127.4791,1.89909 l 125.93362,0.35333 V 457.35332 512 h -64.50342 c -53.39,0 -64.76797,0.31879 -66.039,1.85028 -1.90937,2.30065 3.36026,112.52929 5.5049,115.14972 1.05557,1.28977 15.34776,1.66667 63.20077,1.66667 h 61.83675 V 712 c 0,68.99204 -0.28447,81.33333 -1.87474,81.33333 -3.58669,0 -110.4556,-37.04377 -111.43345,-38.62597 -0.5414,-0.87601 -1.42128,-16.08152 -1.95528,-33.79001 -0.53399,-17.70848 -1.54268,-33.26562 -2.24152,-34.57142 -1.19283,-2.22882 -4.79764,-2.3529 -58.88281,-2.02672 l -57.6122,0.34746 0.29841,14.66666 c 0.60605,29.7864 7.34927,142.71968 8.61432,144.26979 0.71956,0.88171 10.40857,4.58487 21.53112,8.22923 11.12255,3.64436 61.47281,20.20457 111.88948,36.80045 l 91.66667,30.17435 v 66.32976 c 0,68.48199 0.15365,70.49059 5.27062,68.89419 1.1345,-0.354 72.53448,-20.7674 158.66664,-45.3632 z"
       id="path289"
       inkscape:connector-curvature="0" />
    <path
       style="fill:#0175bb;stroke-width:1.33333337"
       d="m 562,1128.5537 c -19.06667,-5.4876 -42.76667,-12.2567 -52.66667,-15.0425 -20.45092,-5.7548 -305.90533,-87.2453 -306.17698,-87.4063 -0.17468,-0.1035 -1.58656,-15.7314 -5.18924,-57.43823 C 196.95357,956.93333 192.17067,902.63333 187.33843,848 c -4.83224,-54.63333 -9.65198,-109.53333 -10.7105,-122 -1.05853,-12.46667 -2.81649,-32.26667 -3.90657,-44 -1.09008,-11.73333 -2.88491,-31.83333 -3.98851,-44.66667 -1.1036,-12.83333 -3.5042,-40.13333 -5.33468,-60.66666 -1.83046,-20.53334 -4.52618,-51.13334 -5.99046,-68 -2.96619,-34.16662 -8.31344,-94.77404 -15.35162,-174 -2.57329,-28.96667 -5.87761,-66.76667 -7.34292,-84 -1.4653,-17.23334 -2.9877,-34.03334 -3.38312,-37.33334 -0.64097,-5.34929 -7.87237,-88.07667 -11.36362,-129.999997 -0.73283,-8.8 -1.47508,-17.5 -1.64943,-19.333333 L 118,60.666667 598.66667,60.325488 c 264.36666,-0.187648 481.29113,-0.104653 482.05443,0.184444 0.9529,0.360948 0.8581,6.524844 -0.3027,19.674511 -2.6411,29.919207 -6.9224,78.307957 -9.0861,102.692927 -7.0886,79.89246 -10.52,118.74655 -14.6413,165.7893 C 1054.1211,378 1051.1303,411.9 1050.0448,424 c -1.0855,12.1 -3.1773,35.8 -4.6486,52.66667 -1.4713,16.86666 -3.9059,44.46666 -5.4102,61.33333 -1.5043,16.86667 -4.2075,47.46667 -6.0069,68 -1.7995,20.53333 -3.8742,43.93333 -4.6105,52 -0.7362,8.06667 -2.5618,29.06667 -4.0568,46.66667 -2.5241,29.71398 -5.6752,65.40177 -13.951,158 -1.8023,20.16666 -4.4695,50.16666 -5.927,66.66666 -1.4575,16.5 -3.975,45 -5.59436,63.33334 L 996.89509,1026 l -48.11421,13.7137 c -26.46281,7.5425 -59.21421,16.9259 -72.78088,20.8519 -13.56667,3.926 -35.76667,10.2613 -49.33333,14.0785 C 813.1,1078.4613 792.1,1084.4583 780,1087.9709 c -23.25395,6.7504 -53.54545,15.4109 -130.43401,37.2919 -25.90536,7.3721 -48.40536,13.3733 -50,13.3361 -1.59463,-0.037 -18.49932,-4.5577 -37.56599,-10.0452 z m 69.05928,-80.6719 c 15.55073,-4.4649 30.07405,-8.5874 32.27405,-9.1609 5.89407,-1.5366 149.97916,-42.67359 154.66667,-44.1581 2.2,-0.69672 26.18924,-7.59827 53.30943,-15.33676 27.12018,-7.73851 49.70966,-14.71759 50.19882,-15.50907 0.48916,-0.79148 1.24039,-5.10158 1.66939,-9.57801 1.37467,-14.34405 11.91348,-135.05136 18.11417,-207.47229 1.47552,-17.23334 6.00738,-69.13334 10.0708,-115.33334 4.06343,-46.2 8.56576,-98.4 10.0052,-116 1.43943,-17.6 3.19971,-38 3.91172,-45.33333 0.71202,-7.33333 1.92048,-20.53333 2.68548,-29.33333 2.2541,-25.92958 7.8851,-90.20468 10.04571,-114.66667 3.8224,-43.2766 13.8778,-160.06516 14.79195,-171.80124 0.73202,-9.39796 0.54025,-12.0412 -0.94172,-12.97959 -2.74544,-1.73838 -388.69578,-1.57978 -391.9486,0.16107 -2.49948,1.33768 -2.57902,3.53731 -2.57902,71.3268 v 69.94656 l -131,0.33987 -131,0.33986 -0.40686,5.60272 c -0.64975,8.94708 7.68408,111.54114 9.18233,113.03972 0.90183,0.90203 43.61455,1.35756 127.29069,1.35756 h 125.93346 l 1.8e-4,53.66667 2e-4,53.66667 h -62.57986 c -39.77879,0 -63.89826,0.50125 -66.19831,1.37573 l -3.61845,1.37573 0.8066,12.29094 c 0.44362,6.76001 1.76718,32.09093 2.94124,56.29093 1.17405,24.2 2.68746,45.35 3.36313,47 l 1.22848,3 h 62.02859 62.02858 v 80 c 0,44 -0.45398,80 -1.00886,80 -1.21367,0 -11.4763,-3.41871 -62.99114,-20.98376 -44.63162,-15.21808 -46.17185,-15.78341 -47.0429,-17.26733 -0.3494,-0.59523 -1.0508,-14.58224 -1.55864,-31.08224 -0.50786,-16.5 -1.35475,-32.1 -1.88199,-34.66667 l -0.95863,-4.66667 -56.61225,-0.37044 c -31.13673,-0.20373 -58.05025,-0.0203 -59.8078,0.40782 -3.17125,0.77234 -3.18936,0.87648 -2.38139,13.70377 0.44779,7.10904 2.36144,42.32552 4.25258,78.25885 1.89113,35.93334 3.9357,66.53334 4.54352,68 0.87978,2.12299 12.74029,6.47243 58.17384,21.33334 31.38781,10.26666 81.71485,26.79552 111.83788,36.73077 l 54.76912,18.06411 0.69726,67.93589 c 0.3835,37.36476 0.8335,68.08586 1,68.26926 0.93542,1.0299 7.14196,-0.4479 32.69535,-7.7849 z"
       id="path287"
       inkscape:connector-curvature="0" />
  </g>
</svg>
