<svg height="512" viewBox="0 0 512 512" width="512" xmlns="http://www.w3.org/2000/svg"><g id="Flat"><path d="m192 256h224v160h-224z" fill="#ef5249"/><path d="m96 96h232v160h-232z" fill="#88bf40"/><path d="m96 256h58.845a32 32 0 1 1 42.31 0h58.845v58.845a32 32 0 1 0 0 42.31v58.845h-160z" fill="#0093ba"/><path d="m256 96v58.845a32 32 0 1 1 0 42.31v58.845h58.845a32 32 0 1 0 42.31 0h58.845v-160z" fill="#ffc119"/><path d="m336 400.971 17.177 15.029h62.823v-35.565a45.192 45.192 0 0 0 -40 12.536l-36-36a16.971 16.971 0 0 0 -24 24z" fill="#e8493f"/><path d="m111.029 336-15.029 17.177v62.823h35.565a45.192 45.192 0 0 0 -12.536-40l36-36a16.971 16.971 0 0 0 -24-24z" fill="#047fa7"/><path d="m176 111.029-17.177-15.029h-62.823v35.565a45.192 45.192 0 0 0 40-12.536l36 36a16.971 16.971 0 0 0 24-24z" fill="#7ca540"/><path d="m400.971 176 15.029-17.177v-62.823h-35.565a45.192 45.192 0 0 0 12.536 40l-36 36a16.971 16.971 0 0 0 24 24z" fill="#faac2b"/><path d="m24 416 16-16v-72a24 24 0 0 1 24-24h32v32l20-20a16.971 16.971 0 0 1 24 0 16.971 16.971 0 0 1 0 24l-36 36a45.255 45.255 0 0 1 0 64l-40 40z" fill="#f5be9a"/><rect fill="#ec917f" height="16" rx="8" transform="matrix(.707 -.707 .707 .707 -217.478 162.994)" width="22.627" x="76.686" y="336"/><path d="m96 24 16 16h72a24 24 0 0 1 24 24v32h-32l20 20a16.971 16.971 0 0 1 0 24 16.971 16.971 0 0 1 -24 0l-36-36a45.255 45.255 0 0 1 -64 0l-40-40z" fill="#f5be9a"/><rect fill="#ec917f" height="22.627" rx="8" transform="matrix(.707 -.707 .707 .707 -13.017 144.576)" width="16" x="160" y="76.686"/><path d="m488 96-16 16v72a24 24 0 0 1 -24 24h-32v-32l-20 20a16.971 16.971 0 0 1 -24 0 16.971 16.971 0 0 1 0-24l36-36a45.255 45.255 0 0 1 0-64l40-40z" fill="#f5be9a"/><rect fill="#ec917f" height="16" rx="8" transform="matrix(.707 -.707 .707 .707 5.401 349.037)" width="22.627" x="412.686" y="160"/><path d="m416 488-16-16h-72a24 24 0 0 1 -24-24v-32h32l-20-20a16.971 16.971 0 0 1 0-24 16.971 16.971 0 0 1 24 0l36 36a45.255 45.255 0 0 1 64 0l40 40z" fill="#f5be9a"/><rect fill="#ec917f" height="22.627" rx="8" transform="matrix(.707 -.707 .707 .707 -199.06 367.455)" width="16" x="336" y="412.686"/></g></svg>